<svg width="102" height="101" viewBox="0 0 102 101" fill="none" xmlns="http://www.w3.org/2000/svg">
<path d="M53.1676 6.3125C34.8076 6.3125 16.7026 18.4325 16.7026 38.0012C16.7026 50.4369 23.7789 57.57 28.0501 57.57C29.8351 57.57 30.8551 52.7094 30.8551 51.3206C30.8551 49.6794 26.6476 46.1444 26.6476 39.3269C26.6476 25.0606 37.6126 15.0238 51.7651 15.0238C63.9414 15.0238 72.9301 21.9044 72.9301 34.4663C72.9301 43.8719 69.1051 61.4837 56.8014 61.4837C52.3389 61.4837 48.5139 58.3275 48.5139 53.7194C48.5139 47.0281 53.2314 40.5262 53.2314 33.6456C53.2314 21.9044 36.4651 24.0506 36.4651 38.1906C36.4651 41.1575 36.8476 44.44 38.1864 47.1544C35.7001 57.6962 30.6639 73.3513 30.6639 84.2088C30.6639 87.5544 31.1739 90.8369 31.4926 94.1825C32.1301 94.8769 31.8114 94.8138 32.7039 94.435C41.6926 82.1887 41.3739 79.8531 45.4539 63.8194C47.6851 67.9856 53.3589 70.195 57.8214 70.195C76.8189 70.195 85.3614 51.8887 85.3614 35.35C85.3614 17.7381 69.9976 6.3125 53.1676 6.3125Z" fill="white"/>
</svg>
