<svg width="147" height="146" viewBox="0 0 147 146" fill="none" xmlns="http://www.w3.org/2000/svg">
<path d="M73.5 2.5C112.728 2.5 144.5 34.08 144.5 73C144.5 111.92 112.728 143.5 73.5 143.5C34.2717 143.5 2.5 111.92 2.5 73C2.5 34.08 34.2717 2.5 73.5 2.5Z" stroke="white" stroke-width="5"/>
<path d="M63.5832 86.8748L86.7219 73.4998L63.5832 60.1248V86.8748ZM115.122 51.9661C115.701 54.0615 116.102 56.8703 116.37 60.4369C116.682 64.0036 116.816 67.0798 116.816 69.7548L117.083 73.4998C117.083 83.2636 116.37 90.4415 115.122 95.0336C114.007 99.0461 111.421 101.632 107.409 102.747C105.313 103.326 101.479 103.727 95.594 103.995C89.7982 104.307 84.4928 104.441 79.5886 104.441L72.4998 104.708C53.8194 104.708 42.1832 103.995 37.5911 102.747C33.5786 101.632 30.9928 99.0461 29.8782 95.0336C29.2986 92.9382 28.8973 90.1294 28.6298 86.5628C28.3178 82.9961 28.184 79.9198 28.184 77.2448L27.9165 73.4998C27.9165 63.7361 28.6298 56.5582 29.8782 51.9661C30.9928 47.9536 33.5786 45.3678 37.5911 44.2532C39.6865 43.6736 43.5207 43.2723 49.4057 43.0048C55.2015 42.6928 60.5069 42.559 65.4111 42.559L72.4998 42.2915C91.1803 42.2915 102.817 43.0048 107.409 44.2532C111.421 45.3678 114.007 47.9536 115.122 51.9661Z" fill="white"/>
</svg>
