<svg width="83" height="83" viewBox="0 0 83 83" fill="none" xmlns="http://www.w3.org/2000/svg">
<path d="M30.9158 18.2876H50.3639C57.7727 18.2876 63.7924 24.3073 63.7924 31.7161V51.1642C63.7924 54.7257 62.3776 58.1412 59.8593 60.6596C57.3409 63.1779 53.9254 64.5927 50.3639 64.5927H30.9158C23.507 64.5927 17.4873 58.573 17.4873 51.1642V31.7161C17.4873 28.1546 18.9021 24.739 21.4204 22.2207C23.9387 19.7024 27.3543 18.2876 30.9158 18.2876ZM30.4527 22.9181C28.2422 22.9181 26.1222 23.7962 24.5591 25.3593C22.996 26.9224 22.1178 29.0425 22.1178 31.253V51.6273C22.1178 56.2346 25.8454 59.9622 30.4527 59.9622H50.827C53.0375 59.9622 55.1575 59.084 56.7206 57.5209C58.2837 55.9578 59.1619 53.8378 59.1619 51.6273V31.253C59.1619 26.6457 55.4343 22.9181 50.827 22.9181H30.4527ZM52.7949 26.391C53.5625 26.391 54.2986 26.6959 54.8413 27.2386C55.3841 27.7814 55.689 28.5175 55.689 29.2851C55.689 30.0526 55.3841 30.7887 54.8413 31.3315C54.2986 31.8742 53.5625 32.1791 52.7949 32.1791C52.0274 32.1791 51.2913 31.8742 50.7485 31.3315C50.2058 30.7887 49.9009 30.0526 49.9009 29.2851C49.9009 28.5175 50.2058 27.7814 50.7485 27.2386C51.2913 26.6959 52.0274 26.391 52.7949 26.391ZM40.6398 29.8639C43.7101 29.8639 46.6545 31.0835 48.8255 33.2545C50.9965 35.4254 52.2161 38.3699 52.2161 41.4401C52.2161 44.5104 50.9965 47.4548 48.8255 49.6258C46.6545 51.7968 43.7101 53.0164 40.6398 53.0164C37.5696 53.0164 34.6252 51.7968 32.4542 49.6258C30.2832 47.4548 29.0636 44.5104 29.0636 41.4401C29.0636 38.3699 30.2832 35.4254 32.4542 33.2545C34.6252 31.0835 37.5696 29.8639 40.6398 29.8639ZM40.6398 34.4944C38.7977 34.4944 37.031 35.2262 35.7284 36.5287C34.4259 37.8313 33.6941 39.598 33.6941 41.4401C33.6941 43.2823 34.4259 45.0489 35.7284 46.3515C37.031 47.6541 38.7977 48.3859 40.6398 48.3859C42.482 48.3859 44.2487 47.6541 45.5512 46.3515C46.8538 45.0489 47.5856 43.2823 47.5856 41.4401C47.5856 39.598 46.8538 37.8313 45.5512 36.5287C44.2487 35.2262 42.482 34.4944 40.6398 34.4944Z" fill="white"/>
<path d="M41.3438 1.41406C63.3976 1.41406 81.2734 19.2728 81.2734 41.2988C81.2734 63.3248 63.3976 81.1826 41.3438 81.1826C19.2899 81.1826 1.41414 63.3248 1.41406 41.2988C1.41406 19.2728 19.2899 1.41406 41.3438 1.41406Z" stroke="white" stroke-width="2.82868"/>
<path d="M30.9168 18.2881H50.3649C57.7737 18.2881 63.7934 24.3077 63.7934 31.7166V51.1647C63.7934 54.7261 62.3786 58.1417 59.8602 60.6601C57.3419 63.1784 53.9263 64.5932 50.3649 64.5932H30.9168C23.5079 64.5932 17.4883 58.5735 17.4883 51.1647V31.7166C17.4883 28.1551 18.9031 24.7395 21.4214 22.2212C23.9397 19.7029 27.3553 18.2881 30.9168 18.2881ZM30.4537 22.9186C28.2431 22.9186 26.1231 23.7967 24.56 25.3598C22.9969 26.9229 22.1188 29.0429 22.1188 31.2535V51.6277C22.1188 56.2351 25.8463 59.9627 30.4537 59.9627H50.8279C53.0385 59.9627 55.1585 59.0845 56.7216 57.5214C58.2847 55.9583 59.1628 53.8383 59.1628 51.6277V31.2535C59.1628 26.6462 55.4353 22.9186 50.8279 22.9186H30.4537ZM52.7959 26.3915C53.5635 26.3915 54.2996 26.6964 54.8423 27.2391C55.3851 27.7819 55.69 28.518 55.69 29.2855C55.69 30.0531 55.3851 30.7892 54.8423 31.332C54.2996 31.8747 53.5635 32.1796 52.7959 32.1796C52.0283 32.1796 51.2922 31.8747 50.7495 31.332C50.2067 30.7892 49.9018 30.0531 49.9018 29.2855C49.9018 28.518 50.2067 27.7819 50.7495 27.2391C51.2922 26.6964 52.0283 26.3915 52.7959 26.3915ZM40.6408 29.8644C43.711 29.8644 46.6555 31.084 48.8265 33.255C50.9974 35.4259 52.2171 38.3704 52.2171 41.4406C52.2171 44.5108 50.9974 47.4553 48.8265 49.6263C46.6555 51.7973 43.711 53.0169 40.6408 53.0169C37.5706 53.0169 34.6261 51.7973 32.4552 49.6263C30.2842 47.4553 29.0646 44.5108 29.0646 41.4406C29.0646 38.3704 30.2842 35.4259 32.4552 33.255C34.6261 31.084 37.5706 29.8644 40.6408 29.8644ZM40.6408 34.4949C38.7987 34.4949 37.032 35.2266 35.7294 36.5292C34.4268 37.8318 33.6951 39.5985 33.6951 41.4406C33.6951 43.2828 34.4268 45.0494 35.7294 46.352C37.032 47.6546 38.7987 48.3864 40.6408 48.3864C42.4829 48.3864 44.2496 47.6546 45.5522 46.352C46.8548 45.0494 47.5866 43.2828 47.5866 41.4406C47.5866 39.5985 46.8548 37.8318 45.5522 36.5292C44.2496 35.2266 42.4829 34.4949 40.6408 34.4949Z" fill="white"/>
</svg>
