<svg width="83" height="83" viewBox="0 0 83 83" fill="none" xmlns="http://www.w3.org/2000/svg">
<path d="M41.1074 1.40625C63.0351 1.40631 80.8086 19.1624 80.8086 41.0625C80.8086 62.9626 63.0351 80.7187 41.1074 80.7188C19.1797 80.7188 1.40625 62.9626 1.40625 41.0625C1.40625 19.1624 19.1797 1.40625 41.1074 1.40625Z" stroke="white" stroke-width="2.8125"/>
<mask id="mask0_659_364" style="mask-type:luminance" maskUnits="userSpaceOnUse" x="17" y="18" width="48" height="47">
<path d="M17.8975 18H64.334V64.4006H17.8975V18Z" fill="white"/>
</mask>
<g mask="url(#mask0_659_364)">
<path d="M54.4662 20.1743H61.5876L46.0314 37.9855L64.334 62.2265H50.005L38.774 47.5275L25.9376 62.2265H18.8096L35.4472 43.1691L17.8975 20.1776H32.5913L42.7277 33.6106L54.4662 20.1743ZM51.962 57.9577H55.9091L30.4353 24.2211H26.203L51.962 57.9577Z" fill="white"/>
</g>
</svg>
