<svg width="147" height="146" viewBox="0 0 147 146" fill="none" xmlns="http://www.w3.org/2000/svg">
<path d="M73.5 2.5C112.728 2.5 144.5 34.08 144.5 73C144.5 111.92 112.728 143.5 73.5 143.5C34.2717 143.5 2.5 111.92 2.5 73C2.5 34.08 34.2717 2.5 73.5 2.5Z" stroke="white" stroke-width="5"/>
<path d="M76.1676 30.3125C57.8076 30.3125 39.7026 42.4325 39.7026 62.0012C39.7026 74.4369 46.7789 81.57 51.0501 81.57C52.8351 81.57 53.8551 76.7094 53.8551 75.3206C53.8551 73.6794 49.6476 70.1444 49.6476 63.3269C49.6476 49.0606 60.6126 39.0238 74.7651 39.0238C86.9414 39.0238 95.9301 45.9044 95.9301 58.4663C95.9301 67.8719 92.1051 85.4837 79.8014 85.4837C75.3389 85.4837 71.5139 82.3275 71.5139 77.7194C71.5139 71.0281 76.2314 64.5262 76.2314 57.6456C76.2314 45.9044 59.4651 48.0506 59.4651 62.1906C59.4651 65.1575 59.8476 68.44 61.1864 71.1544C58.7001 81.6962 53.6639 97.3513 53.6639 108.209C53.6639 111.554 54.1739 114.837 54.4926 118.183C55.1301 118.877 54.8114 118.814 55.7039 118.435C64.6926 106.189 64.3739 103.853 68.4539 87.8194C70.6851 91.9856 76.3589 94.195 80.8214 94.195C99.8189 94.195 108.361 75.8887 108.361 59.35C108.361 41.7381 92.9976 30.3125 76.1676 30.3125Z" fill="white"/>
</svg>
