<svg width="83" height="83" viewBox="0 0 83 83" fill="none" xmlns="http://www.w3.org/2000/svg">
<path d="M53.1513 25.3889C51.3763 23.3617 50.3979 20.7589 50.3982 18.0645H42.3725V50.2711C42.3119 52.0144 41.5765 53.6659 40.3214 54.8774C39.0664 56.0888 37.3898 56.7654 35.6455 56.7643C31.9573 56.7643 28.8925 53.7515 28.8925 50.0113C28.8925 45.544 33.204 42.1934 37.6454 43.57V35.3625C28.6847 34.1678 20.8408 41.1285 20.8408 50.0113C20.8408 58.6604 28.0094 64.816 35.6195 64.816C43.7751 64.816 50.3982 58.1929 50.3982 50.0113V33.6743C53.6526 36.0115 57.5599 37.2654 61.5666 37.2586V29.2329C61.5666 29.2329 56.6837 29.4666 53.1513 25.3889Z" fill="white"/>
<path d="M41.3438 1.41406C63.3976 1.41406 81.2734 19.2728 81.2734 41.2988C81.2734 63.3248 63.3976 81.1826 41.3438 81.1826C19.2899 81.1826 1.41414 63.3248 1.41406 41.2988C1.41406 19.2728 19.2899 1.41406 41.3438 1.41406Z" stroke="white" stroke-width="2.82868"/>
<path d="M53.1513 25.3893C51.3763 23.3622 50.3979 20.7594 50.3982 18.0649H42.3725V50.2716C42.3119 52.0149 41.5765 53.6664 40.3214 54.8779C39.0664 56.0893 37.3898 56.7659 35.6455 56.7648C31.9573 56.7648 28.8925 53.7519 28.8925 50.0118C28.8925 45.5445 33.204 42.1939 37.6454 43.5705V35.363C28.6847 34.1682 20.8408 41.129 20.8408 50.0118C20.8408 58.6609 28.0094 64.8165 35.6195 64.8165C43.7751 64.8165 50.3982 58.1933 50.3982 50.0118V33.6748C53.6526 36.0119 57.5599 37.2659 61.5666 37.259V29.2334C61.5666 29.2334 56.6837 29.4671 53.1513 25.3893Z" fill="white"/>
</svg>
