<svg width="147" height="146" viewBox="0 0 147 146" fill="none" xmlns="http://www.w3.org/2000/svg">
<path d="M73.5 2.5C112.728 2.5 144.5 34.08 144.5 73C144.5 111.92 112.728 143.5 73.5 143.5C34.2717 143.5 2.5 111.92 2.5 73C2.5 34.08 34.2717 2.5 73.5 2.5Z" stroke="white" stroke-width="5"/>
<path d="M55.175 32.1665H89.825C103.025 32.1665 113.75 42.7832 113.75 55.8498V90.1498C113.75 96.431 111.229 102.455 106.743 106.896C102.256 111.338 96.1703 113.833 89.825 113.833H55.175C41.975 113.833 31.25 103.217 31.25 90.1498V55.8498C31.25 49.5686 33.7707 43.5447 38.2575 39.1032C42.7443 34.6617 48.8297 32.1665 55.175 32.1665ZM54.35 40.3332C50.4115 40.3332 46.6344 41.8819 43.8495 44.6387C41.0645 47.3955 39.5 51.1345 39.5 55.0332V90.9665C39.5 99.0923 46.1412 105.666 54.35 105.666H90.65C94.5885 105.666 98.3656 104.118 101.151 101.361C103.935 98.6042 105.5 94.8652 105.5 90.9665V55.0332C105.5 46.9073 98.8587 40.3332 90.65 40.3332H54.35ZM94.1562 46.4582C95.5238 46.4582 96.8353 46.9959 97.8023 47.9531C98.7693 48.9104 99.3125 50.2086 99.3125 51.5623C99.3125 52.916 98.7693 54.2143 97.8023 55.1715C96.8353 56.1287 95.5238 56.6665 94.1562 56.6665C92.7887 56.6665 91.4772 56.1287 90.5102 55.1715C89.5432 54.2143 89 52.916 89 51.5623C89 50.2086 89.5432 48.9104 90.5102 47.9531C91.4772 46.9959 92.7887 46.4582 94.1562 46.4582ZM72.5 52.5832C77.9701 52.5832 83.2161 54.7342 87.0841 58.5631C90.952 62.3919 93.125 67.585 93.125 72.9998C93.125 78.4147 90.952 83.6077 87.0841 87.4366C83.2161 91.2655 77.9701 93.4165 72.5 93.4165C67.0299 93.4165 61.7839 91.2655 57.9159 87.4366C54.048 83.6077 51.875 78.4147 51.875 72.9998C51.875 67.585 54.048 62.3919 57.9159 58.5631C61.7839 54.7342 67.0299 52.5832 72.5 52.5832ZM72.5 60.7498C69.2179 60.7498 66.0703 62.0405 63.7496 64.3378C61.4288 66.6351 60.125 69.7509 60.125 72.9998C60.125 76.2487 61.4288 79.3646 63.7496 81.6619C66.0703 83.9592 69.2179 85.2498 72.5 85.2498C75.7821 85.2498 78.9297 83.9592 81.2504 81.6619C83.5712 79.3646 84.875 76.2487 84.875 72.9998C84.875 69.7509 83.5712 66.6351 81.2504 64.3378C78.9297 62.0405 75.7821 60.7498 72.5 60.7498Z" fill="white"/>
</svg>
