<svg width="147" height="146" viewBox="0 0 147 146" fill="none" xmlns="http://www.w3.org/2000/svg">
<path d="M73.5 2.5C112.728 2.5 144.5 34.08 144.5 73C144.5 111.92 112.728 143.5 73.5 143.5C34.2717 143.5 2.5 111.92 2.5 73C2.5 34.08 34.2717 2.5 73.5 2.5Z" stroke="white" stroke-width="5"/>
<path d="M92.5457 78.2498L94.8793 63.0484H80.2922V53.1837C80.2922 49.0257 82.3292 44.9701 88.8628 44.9701H95.4936V32.0288C95.4936 32.0288 89.4771 31.0024 83.7231 31.0024C71.7111 31.0024 63.8597 38.2842 63.8597 51.4643V63.0511H50.5063V78.2524H63.8597V115.002H80.2922V78.2524L92.5457 78.2498Z" fill="white"/>
</svg>
