<svg width="83" height="83" viewBox="0 0 83 83" fill="none" xmlns="http://www.w3.org/2000/svg">
<path d="M52.0896 44.2599L53.406 35.6846H45.1772V30.1197C45.1772 27.7741 46.3263 25.4863 50.012 25.4863H53.7525V18.1859C53.7525 18.1859 50.3585 17.6069 47.1126 17.6069C40.3364 17.6069 35.9074 21.7147 35.9074 29.1498V35.6861H28.3745V44.2614H35.9074V64.9926H45.1772V44.2614L52.0896 44.2599Z" fill="white"/>
<path d="M41.3438 1.41406C63.3976 1.41406 81.2734 19.2728 81.2734 41.2988C81.2734 63.3248 63.3976 81.1826 41.3438 81.1826C19.2899 81.1826 1.41414 63.3248 1.41406 41.2988C1.41406 19.2728 19.2899 1.41406 41.3438 1.41406Z" stroke="white" stroke-width="2.82868"/>
<path d="M52.0891 44.2604L53.4055 35.6851H45.1767V30.1202C45.1767 27.7746 46.3258 25.4868 50.0115 25.4868H53.752V18.1864C53.752 18.1864 50.358 17.6074 47.1121 17.6074C40.3359 17.6074 35.9069 21.7152 35.9069 29.1503V35.6865H28.374V44.2619H35.9069V64.9931H45.1767V44.2619L52.0891 44.2604Z" fill="white"/>
</svg>
