<svg width="147" height="146" viewBox="0 0 147 146" fill="none" xmlns="http://www.w3.org/2000/svg">
<path d="M73.5 2.5C112.728 2.5 144.5 34.08 144.5 73C144.5 111.92 112.728 143.5 73.5 143.5C34.2717 143.5 2.5 111.92 2.5 73C2.5 34.08 34.2717 2.5 73.5 2.5Z" stroke="white" stroke-width="5"/>
<path d="M94.7752 44.675C91.6144 41.0978 89.8723 36.5047 89.8727 31.75H75.5815V88.5833C75.4735 91.6596 74.164 94.5741 71.9292 96.7119C69.6943 98.8496 66.7089 100.044 63.6027 100.042C57.0352 100.042 51.5777 94.725 51.5777 88.125C51.5777 80.2417 59.2552 74.3292 67.164 76.7583V62.275C51.2077 60.1667 37.2402 72.45 37.2402 88.125C37.2402 103.388 50.0052 114.25 63.5565 114.25C78.079 114.25 89.8727 102.563 89.8727 88.125V59.2958C95.6679 63.4201 102.626 65.633 109.76 65.6208V51.4583C109.76 51.4583 101.065 51.8708 94.7752 44.675Z" fill="white"/>
</svg>
