<svg width="83" height="83" viewBox="0 0 83 83" fill="none" xmlns="http://www.w3.org/2000/svg">
<path d="M35.751 49.1267L48.8039 41.5817L35.751 34.0366V49.1267ZM64.8246 29.4341C65.1515 30.6162 65.3779 32.2007 65.5288 34.2127C65.7048 36.2247 65.7803 37.96 65.7803 39.4691L65.9312 41.5817C65.9312 47.0895 65.5288 51.1387 64.8246 53.7292C64.1958 55.9927 62.7371 57.4514 60.4736 58.0802C59.2915 58.4071 57.1286 58.6335 53.8088 58.7844C50.5393 58.9604 47.5464 59.0359 44.7799 59.0359L40.781 59.1868C30.2431 59.1868 23.6789 58.7844 21.0884 58.0802C18.8249 57.4514 17.3662 55.9927 16.7375 53.7292C16.4105 52.5471 16.1842 50.9627 16.0333 48.9507C15.8572 46.9386 15.7818 45.2033 15.7818 43.6943L15.6309 41.5817C15.6309 36.0738 16.0333 32.0246 16.7375 29.4341C17.3662 27.1706 18.8249 25.7119 21.0884 25.0832C22.2705 24.7562 24.4334 24.5299 27.7532 24.379C31.0228 24.2029 34.0156 24.1275 36.7821 24.1275L40.781 23.9766C51.3189 23.9766 57.8831 24.379 60.4736 25.0832C62.7371 25.7119 64.1958 27.1706 64.8246 29.4341Z" fill="white"/>
<path d="M41.3438 1.41406C63.3976 1.41406 81.2734 19.2728 81.2734 41.2988C81.2734 63.3248 63.3976 81.1826 41.3438 81.1826C19.2899 81.1826 1.41414 63.3248 1.41406 41.2988C1.41406 19.2728 19.2899 1.41406 41.3438 1.41406Z" stroke="white" stroke-width="2.82868"/>
<path d="M35.751 49.1267L48.8039 41.5817L35.751 34.0366V49.1267ZM64.8246 29.4341C65.1515 30.6162 65.3779 32.2007 65.5288 34.2127C65.7048 36.2247 65.7803 37.96 65.7803 39.4691L65.9312 41.5817C65.9312 47.0895 65.5288 51.1387 64.8246 53.7292C64.1958 55.9927 62.7371 57.4514 60.4736 58.0802C59.2915 58.4071 57.1286 58.6335 53.8088 58.7844C50.5393 58.9604 47.5464 59.0359 44.7799 59.0359L40.781 59.1868C30.2431 59.1868 23.6789 58.7844 21.0884 58.0802C18.8249 57.4514 17.3662 55.9927 16.7375 53.7292C16.4105 52.5471 16.1842 50.9627 16.0333 48.9507C15.8572 46.9386 15.7818 45.2033 15.7818 43.6943L15.6309 41.5817C15.6309 36.0738 16.0333 32.0246 16.7375 29.4341C17.3662 27.1706 18.8249 25.7119 21.0884 25.0832C22.2705 24.7562 24.4334 24.5299 27.7532 24.379C31.0228 24.2029 34.0156 24.1275 36.7821 24.1275L40.781 23.9766C51.3189 23.9766 57.8831 24.379 60.4736 25.0832C62.7371 25.7119 64.1958 27.1706 64.8246 29.4341Z" fill="white"/>
</svg>
