<svg width="83" height="83" viewBox="0 0 83 83" fill="none" xmlns="http://www.w3.org/2000/svg">
<path d="M42.7013 17.2383C32.3948 17.2383 22.2314 24.1093 22.2314 35.2031C22.2314 42.253 26.2037 46.2969 28.6014 46.2969C29.6035 46.2969 30.1761 43.5414 30.1761 42.7541C30.1761 41.8236 27.8141 39.8196 27.8141 35.9546C27.8141 27.8669 33.9694 22.1768 41.914 22.1768C48.7492 22.1768 53.7951 26.0775 53.7951 33.1991C53.7951 38.5312 51.648 48.5157 44.7412 48.5157C42.2361 48.5157 40.0889 46.7264 40.0889 44.1139C40.0889 40.3206 42.7371 36.6346 42.7371 32.7338C42.7371 26.0775 33.3253 27.2943 33.3253 35.3105C33.3253 36.9924 33.54 38.8533 34.2915 40.3921C32.8958 46.3685 30.0687 55.2435 30.0687 61.3988C30.0687 63.2955 30.355 65.1564 30.5339 67.0531C30.8918 67.4467 30.7128 67.411 31.2139 67.1962C36.2598 60.2537 36.0808 58.9296 38.3712 49.8398C39.6237 52.2017 42.8087 53.4542 45.3137 53.4542C55.9781 53.4542 60.7735 43.0761 60.7735 33.7001C60.7735 23.7156 52.149 17.2383 42.7013 17.2383Z" fill="white"/>
<path d="M41.3438 1.41406C63.3976 1.41406 81.2734 19.2728 81.2734 41.2988C81.2734 63.3248 63.3976 81.1826 41.3438 81.1826C19.2899 81.1826 1.41414 63.3248 1.41406 41.2988C1.41406 19.2728 19.2899 1.41406 41.3438 1.41406Z" stroke="white" stroke-width="2.82868"/>
<path d="M42.7013 17.2388C32.3948 17.2388 22.2314 24.1098 22.2314 35.2036C22.2314 42.2535 26.2037 46.2974 28.6014 46.2974C29.6035 46.2974 30.1761 43.5418 30.1761 42.7545C30.1761 41.8241 27.8141 39.8201 27.8141 35.9551C27.8141 27.8674 33.9694 22.1773 41.914 22.1773C48.7492 22.1773 53.7951 26.078 53.7951 33.1995C53.7951 38.5317 51.648 48.5162 44.7412 48.5162C42.2361 48.5162 40.0889 46.7268 40.0889 44.1144C40.0889 40.3211 42.7371 36.6351 42.7371 32.7343C42.7371 26.078 33.3253 27.2948 33.3253 35.311C33.3253 36.9929 33.54 38.8538 34.2915 40.3926C32.8958 46.369 30.0687 55.244 30.0687 61.3993C30.0687 63.296 30.355 65.1569 30.5339 67.0536C30.8918 67.4472 30.7128 67.4114 31.2139 67.1967C36.2598 60.2541 36.0808 58.93 38.3712 49.8403C39.6237 52.2022 42.8087 53.4547 45.3137 53.4547C55.9781 53.4547 60.7735 43.0766 60.7735 33.7006C60.7735 23.7161 52.149 17.2388 42.7013 17.2388Z" fill="white"/>
</svg>
