<svg width="111" height="110" viewBox="0 0 111 110" fill="none" xmlns="http://www.w3.org/2000/svg">
<path d="M76.7752 26.675C73.6144 23.0978 71.8723 18.5047 71.8727 13.75H57.5815V70.5833C57.4735 73.6596 56.164 76.5741 53.9292 78.7119C51.6943 80.8496 48.7089 82.0435 45.6027 82.0417C39.0352 82.0417 33.5777 76.725 33.5777 70.125C33.5777 62.2417 41.2552 56.3292 49.164 58.7583V44.275C33.2077 42.1667 19.2402 54.45 19.2402 70.125C19.2402 85.3875 32.0052 96.25 45.5565 96.25C60.079 96.25 71.8727 84.5625 71.8727 70.125V41.2958C77.6679 45.4201 84.6255 47.633 91.7602 47.6208V33.4583C91.7602 33.4583 83.0652 33.8708 76.7752 26.675Z" fill="white"/>
</svg>
