<svg width="99" height="98" viewBox="0 0 99 98" fill="none" xmlns="http://www.w3.org/2000/svg">
<path d="M32.175 8.1665H66.825C80.025 8.1665 90.75 18.7832 90.75 31.8498V66.1498C90.75 72.431 88.2293 78.455 83.7425 82.8965C79.2557 87.338 73.1703 89.8332 66.825 89.8332H32.175C18.975 89.8332 8.25 79.2165 8.25 66.1498V31.8498C8.25 25.5686 10.7707 19.5447 15.2575 15.1032C19.7443 10.6617 25.8297 8.1665 32.175 8.1665ZM31.35 16.3332C27.4115 16.3332 23.6344 17.8819 20.8495 20.6387C18.0645 23.3955 16.5 27.1345 16.5 31.0332V66.9665C16.5 75.0923 23.1412 81.6665 31.35 81.6665H67.65C71.5885 81.6665 75.3656 80.1178 78.1505 77.361C80.9355 74.6042 82.5 70.8652 82.5 66.9665V31.0332C82.5 22.9073 75.8587 16.3332 67.65 16.3332H31.35ZM71.1562 22.4582C72.5238 22.4582 73.8353 22.9959 74.8023 23.9531C75.7693 24.9104 76.3125 26.2086 76.3125 27.5623C76.3125 28.916 75.7693 30.2143 74.8023 31.1715C73.8353 32.1287 72.5238 32.6665 71.1562 32.6665C69.7887 32.6665 68.4772 32.1287 67.5102 31.1715C66.5432 30.2143 66 28.916 66 27.5623C66 26.2086 66.5432 24.9104 67.5102 23.9531C68.4772 22.9959 69.7887 22.4582 71.1562 22.4582ZM49.5 28.5832C54.9701 28.5832 60.2161 30.7342 64.0841 34.5631C67.952 38.3919 70.125 43.585 70.125 48.9998C70.125 54.4147 67.952 59.6077 64.0841 63.4366C60.2161 67.2655 54.9701 69.4165 49.5 69.4165C44.0299 69.4165 38.7839 67.2655 34.9159 63.4366C31.048 59.6077 28.875 54.4147 28.875 48.9998C28.875 43.585 31.048 38.3919 34.9159 34.5631C38.7839 30.7342 44.0299 28.5832 49.5 28.5832ZM49.5 36.7498C46.2179 36.7498 43.0703 38.0405 40.7496 40.3378C38.4288 42.6351 37.125 45.7509 37.125 48.9998C37.125 52.2487 38.4288 55.3646 40.7496 57.6619C43.0703 59.9592 46.2179 61.2498 49.5 61.2498C52.7821 61.2498 55.9297 59.9592 58.2504 57.6619C60.5712 55.3646 61.875 52.2487 61.875 48.9998C61.875 45.7509 60.5712 42.6351 58.2504 40.3378C55.9297 38.0405 52.7821 36.7498 49.5 36.7498Z" fill="white"/>
</svg>
