<svg width="107" height="107" viewBox="0 0 107 107" fill="none" xmlns="http://www.w3.org/2000/svg">
<path d="M44.5832 66.8748L67.7219 53.4998L44.5832 40.1248V66.8748ZM96.1215 31.9661C96.7011 34.0615 97.1023 36.8703 97.3698 40.4369C97.6819 44.0036 97.8157 47.0798 97.8157 49.7548L98.0832 53.4998C98.0832 63.2636 97.3698 70.4415 96.1215 75.0336C95.0069 79.0461 92.4211 81.6319 88.4086 82.7465C86.3132 83.3261 82.479 83.7273 76.594 83.9948C70.7982 84.3069 65.4928 84.4407 60.5886 84.4407L53.4998 84.7082C34.8194 84.7082 23.1832 83.9948 18.5911 82.7465C14.5786 81.6319 11.9928 79.0461 10.8782 75.0336C10.2986 72.9382 9.89734 70.1294 9.62984 66.5628C9.31775 62.9961 9.184 59.9198 9.184 57.2448L8.9165 53.4998C8.9165 43.7361 9.62984 36.5582 10.8782 31.9661C11.9928 27.9536 14.5786 25.3678 18.5911 24.2532C20.6865 23.6736 24.5207 23.2723 30.4057 23.0048C36.2015 22.6928 41.5069 22.559 46.4111 22.559L53.4998 22.2915C72.1803 22.2915 83.8165 23.0048 88.4086 24.2532C92.4211 25.3678 95.0069 27.9536 96.1215 31.9661Z" fill="white"/>
</svg>
